Normalized EMG Linear Envelopes
nRows=124
nColumns=4

endheader
time	 med_gas_r	  soleus_r	 tib_ant_r	
3.14899	  0.023148	  0.030440	  0.016251	
3.22056	  0.022214	  0.030073	  0.016274	
3.29213	  0.021762	  0.029507	  0.016262	
3.3637	  0.021810	  0.029230	  0.016124	
3.43526	  0.021859	  0.029123	  0.015853	
3.50683	  0.021790	  0.029423	  0.015628	
3.5784	  0.021756	  0.029708	  0.015506	
3.64997	  0.022355	  0.030136	  0.015642	
3.72154	  0.025282	  0.031535	  0.016181	
3.7931	  0.032577	  0.034537	  0.016960	
3.86467	  0.043636	  0.037982	  0.017657	
3.93624	  0.051021	  0.038814	  0.018068	
4.00781	  0.047334	  0.036026	  0.017805	
4.07938	  0.040134	  0.033037	  0.017044	
4.15094	  0.036373	  0.031275	  0.016473	
4.22251	  0.035374	  0.030415	  0.016062	
4.29408	  0.034350	  0.030237	  0.015515	
4.36565	  0.030841	  0.030096	  0.014855	
4.43722	  0.024349	  0.028396	  0.014472	
4.50878	  0.016524	  0.025648	  0.015038	
4.58035	  0.013060	  0.025043	  0.018202	
4.65192	  0.025617	  0.031910	  0.026174	
4.72349	  0.069212	  0.052303	  0.039053	
4.79506	  0.152217	  0.089199	  0.050573	
4.86662	  0.249168	  0.132664	  0.049411	
4.93819	  0.287131	  0.151895	  0.041245	
5.00976	  0.282576	  0.154104	  0.035693	
5.08133	  0.291302	  0.168819	  0.033423	
5.1529	  0.321144	  0.186226	  0.030957	
5.22446	  0.369798	  0.210177	  0.030175	
5.29603	  0.414206	  0.226946	  0.030923	
5.3676	  0.428068	  0.237774	  0.031486	
5.43917	  0.429999	  0.253523	  0.030642	
5.51074	  0.427527	  0.257399	  0.028959	
5.5823	  0.412724	  0.258023	  0.027668	
5.65387	  0.382845	  0.252944	  0.026996	
5.72544	  0.340206	  0.233622	  0.026543	
5.79701	  0.303764	  0.218949	  0.025833	
5.86858	  0.285788	  0.209069	  0.025623	
5.94014	  0.274150	  0.206003	  0.026141	
6.01171	  0.277345	  0.209047	  0.027372	
6.08328	  0.294488	  0.210029	  0.028699	
6.15485	  0.294126	  0.194839	  0.028696	
6.22642	  0.274726	  0.156294	  0.028181	
6.29798	  0.263774	  0.125781	  0.027891	
6.36955	  0.252456	  0.111319	  0.026851	
6.44112	  0.243073	  0.105525	  0.025823	
6.51269	  0.240589	  0.098318	  0.025990	
6.58426	  0.243594	  0.088893	  0.026421	
6.65582	  0.241896	  0.081558	  0.026275	
6.72739	  0.248733	  0.079491	  0.025667	
6.79896	  0.268209	  0.082553	  0.025446	
6.87053	  0.296646	  0.092461	  0.025805	
6.9421	  0.325108	  0.110125	  0.026539	
7.01366	  0.332624	  0.129815	  0.027864	
7.08523	  0.320075	  0.138115	  0.030140	
7.1568	  0.301998	  0.138721	  0.033371	
7.22837	  0.290729	  0.133596	  0.035800	
7.29994	  0.282303	  0.118621	  0.036131	
7.3715	  0.277219	  0.096380	  0.035448	
7.44307	  0.261858	  0.084411	  0.036067	
7.51464	  0.250389	  0.087380	  0.037614	
7.58621	  0.243430	  0.099260	  0.038087	
7.65778	  0.225235	  0.108353	  0.036406	
7.72934	  0.197315	  0.104941	  0.033982	
7.80091	  0.190987	  0.102193	  0.032313	
7.87248	  0.212715	  0.109008	  0.031761	
7.94405	  0.255303	  0.120552	  0.033441	
8.01562	  0.295898	  0.123784	  0.036994	
8.08718	  0.317759	  0.121017	  0.040220	
8.15875	  0.329478	  0.125904	  0.041358	
8.23032	  0.334572	  0.138019	  0.042528	
8.30189	  0.326933	  0.143119	  0.042913	
8.37346	  0.307466	  0.141852	  0.042713	
8.44502	  0.291495	  0.134490	  0.041164	
8.51659	  0.284041	  0.131411	  0.039506	
8.58816	  0.294092	  0.132649	  0.039001	
8.65973	  0.318727	  0.125146	  0.039287	
8.7313	  0.343155	  0.116383	  0.038721	
8.80286	  0.366933	  0.111705	  0.037583	
8.87443	  0.381345	  0.111352	  0.037083	
8.946	  0.378495	  0.116716	  0.037259	
9.01757	  0.367108	  0.126953	  0.037921	
9.08914	  0.350995	  0.131623	  0.037808	
9.1607	  0.341710	  0.133111	  0.036397	
9.23227	  0.342347	  0.138961	  0.034508	
9.30384	  0.354443	  0.146550	  0.033778	
9.37541	  0.368344	  0.148218	  0.033245	
9.44698	  0.373618	  0.151633	  0.033361	
9.51854	  0.374707	  0.150700	  0.034992	
9.59011	  0.368811	  0.153176	  0.037713	
9.66168	  0.346182	  0.155176	  0.038158	
9.73325	  0.316400	  0.153485	  0.036810	
9.80482	  0.306443	  0.150423	  0.035369	
9.87638	  0.323389	  0.142624	  0.034702	
9.94795	  0.338568	  0.140371	  0.034913	
10.0195	  0.329643	  0.138197	  0.035067	
10.0911	  0.296692	  0.129893	  0.035629	
10.1627	  0.253960	  0.111276	  0.037419	
10.2342	  0.201622	  0.087657	  0.043643	
10.3058	  0.164402	  0.072887	  0.057867	
10.3774	  0.164782	  0.072247	  0.077205	
10.4489	  0.168367	  0.073857	  0.088000	
10.5205	  0.177590	  0.077152	  0.075815	
10.5921	  0.181962	  0.078287	  0.054681	
10.6636	  0.157794	  0.072622	  0.038893	
10.7352	  0.131961	  0.066428	  0.033547	
10.8068	  0.102941	  0.058097	  0.042914	
10.8783	  0.081349	  0.050361	  0.068955	
10.9499	  0.075692	  0.047665	  0.108975	
11.0215	  0.077648	  0.050107	  0.151298	
11.093	  0.087039	  0.056413	  0.182431	
11.1646	  0.088469	  0.059324	  0.190614	
11.2362	  0.085547	  0.058797	  0.179980	
11.3077	  0.084006	  0.056320	  0.165372	
11.3793	  0.072351	  0.051036	  0.160365	
11.4509	  0.058584	  0.047486	  0.154911	
11.5224	  0.047392	  0.046276	  0.153689	
11.594	  0.037122	  0.045738	  0.167301	
11.6656	  0.030178	  0.043951	  0.181795	
11.7372	  0.027676	  0.041543	  0.195361	
11.8087	  0.028215	  0.040620	  0.208856	
11.8803	  0.031727	  0.041732	  0.211378	
11.9519	  0.037297	  0.043648	  0.190358	
